<svg xmlns="http://www.w3.org/2000/svg" width="740" height="410" viewBox="0 0 740 410" role="img" aria-label="Growth exponent by width, by implementation"><title>Growth exponent by width, by implementation</title><style>text { font-family: ui-monospace, SFMono-Regular, Menlo, Consolas, monospace; }</style><rect x="0.5" y="0.5" width="739" height="409" rx="6" fill="#ffffff" stroke="#e1e4e8" stroke-width="1"/><text x="16" y="24" class="f-fg" fill="#1a1d23" font-size="14" font-weight="700">Growth exponent by width: 1 is linear, 2 is quadratic</text><text x="16" y="42" class="f-muted" fill="#4a515b" font-size="11">Slope of log(time) against log(size). Hollow bars are fits too poor to read as a measurement.</text><line x1="392" y1="58" x2="392" y2="366" class="s-grid" stroke="#d0d4da" stroke-width="1" stroke-dasharray="3 3"/><text x="392" y="382" class="f-muted" fill="#4a515b" font-size="10" text-anchor="middle">linear</text><line x1="560" y1="58" x2="560" y2="366" class="s-grid" stroke="#d0d4da" stroke-width="1" stroke-dasharray="3 3"/><text x="560" y="382" class="f-muted" fill="#4a515b" font-size="10" text-anchor="middle">quadratic</text><text x="216" y="85" class="f-fg" fill="#1a1d23" font-size="11" text-anchor="end">canonicalize</text><rect x="224" y="72" width="182.43152184578452" height="16" rx="2" class="f-bar" fill="#2f5d90"/><text x="414.4315218457845" y="85" class="f-muted" fill="#4a515b" font-size="11">1.09</text><text x="216" y="115" class="f-fg" fill="#1a1d23" font-size="11" text-anchor="end">json-canonicalize</text><rect x="224" y="102" width="194.4570899787277" height="16" rx="2" class="f-bar" fill="#2f5d90"/><text x="426.4570899787277" y="115" class="f-muted" fill="#4a515b" font-size="11">1.16</text><text x="216" y="145" class="f-fg" fill="#1a1d23" font-size="11" text-anchor="end">safe-stable-stringify</text><rect x="224" y="132" width="178.03140109472588" height="16" rx="2" class="f-bar" fill="#2f5d90"/><text x="410.0314010947259" y="145" class="f-muted" fill="#4a515b" font-size="11">1.06</text><text x="216" y="175" class="f-fg" fill="#1a1d23" font-size="11" text-anchor="end">fast-json-stable-stringify</text><rect x="224" y="162" width="198.4462207487328" height="16" rx="2" class="f-bar" fill="#2f5d90"/><text x="430.4462207487328" y="175" class="f-muted" fill="#4a515b" font-size="11">1.18</text><text x="216" y="205" class="f-fg" fill="#1a1d23" font-size="11" text-anchor="end">ohash.serialize</text><rect x="224" y="192" width="191.81439464011947" height="16" rx="2" class="f-bar" fill="#2f5d90"/><text x="423.8143946401195" y="205" class="f-muted" fill="#4a515b" font-size="11">1.14</text><text x="216" y="235" class="f-fg" fill="#1a1d23" font-size="11" text-anchor="end">ohash.hash</text><rect x="224" y="222" width="194.72102238123006" height="16" rx="2" class="f-bar" fill="#2f5d90"/><text x="426.72102238123006" y="235" class="f-muted" fill="#4a515b" font-size="11">1.16</text><text x="216" y="265" class="f-fg" fill="#1a1d23" font-size="11" text-anchor="end">stable-hash</text><rect x="224" y="252" width="211.137193702427" height="16" rx="2" class="f-bar" fill="#2f5d90"/><text x="443.137193702427" y="265" class="f-muted" fill="#4a515b" font-size="11">1.26</text><text x="216" y="295" class="f-fg" fill="#1a1d23" font-size="11" text-anchor="end">object-hash</text><rect x="224" y="282" width="170.31516504052883" height="16" rx="2" class="f-bar" fill="#2f5d90"/><text x="402.3151650405288" y="295" class="f-muted" fill="#4a515b" font-size="11">1.01</text><text x="216" y="325" class="f-fg" fill="#1a1d23" font-size="11" text-anchor="end">impronta.imprint</text><rect x="224" y="312" width="171.6119004304394" height="16" rx="2" class="f-bar" fill="#2f5d90"/><text x="403.6119004304394" y="325" class="f-muted" fill="#4a515b" font-size="11">1.02</text><text x="216" y="355" class="f-fg" fill="#1a1d23" font-size="11" text-anchor="end">impronta.jcs</text><rect x="224" y="342" width="188.64011274443772" height="16" rx="2" class="f-bar" fill="#2f5d90"/><text x="420.6401127444377" y="355" class="f-muted" fill="#4a515b" font-size="11">1.12</text></svg>